<mxfile host="Electron" agent="Mozilla/5.0 (Windows NT 10.0; Win64; x64) AppleWebKit/537.36 (KHTML, like Gecko) draw.io/26.0.16 Chrome/132.0.6834.196 Electron/34.2.0 Safari/537.36" version="26.0.16">
  <diagram name="第 1 页" id="LpYMaUPnVrlQZUX7mQJJ">
    <mxGraphModel dx="1434" dy="844" grid="1" gridSize="10" guides="1" tooltips="1" connect="1" arrows="1" fold="1" page="1" pageScale="1" pageWidth="827" pageHeight="1169" math="0" shadow="0">
      <root>
        <mxCell id="0" />
        <mxCell id="1" parent="0" />
        <mxCell id="aTxAGdpztoEhREPiwRuB-35" style="edgeStyle=orthogonalEdgeStyle;rounded=0;orthogonalLoop=1;jettySize=auto;html=1;entryX=0.5;entryY=0;entryDx=0;entryDy=0;endArrow=none;startFill=0;" edge="1" parent="1" source="aTxAGdpztoEhREPiwRuB-1" target="aTxAGdpztoEhREPiwRuB-3">
          <mxGeometry relative="1" as="geometry">
            <Array as="points">
              <mxPoint x="447" y="290" />
              <mxPoint x="258" y="290" />
            </Array>
          </mxGeometry>
        </mxCell>
        <mxCell id="aTxAGdpztoEhREPiwRuB-36" style="edgeStyle=orthogonalEdgeStyle;rounded=0;orthogonalLoop=1;jettySize=auto;html=1;entryX=0.5;entryY=0;entryDx=0;entryDy=0;endArrow=none;startFill=0;" edge="1" parent="1" source="aTxAGdpztoEhREPiwRuB-1" target="aTxAGdpztoEhREPiwRuB-2">
          <mxGeometry relative="1" as="geometry">
            <Array as="points">
              <mxPoint x="447" y="290" />
              <mxPoint x="618" y="290" />
            </Array>
          </mxGeometry>
        </mxCell>
        <mxCell id="aTxAGdpztoEhREPiwRuB-39" style="edgeStyle=orthogonalEdgeStyle;rounded=0;orthogonalLoop=1;jettySize=auto;html=1;entryX=0.5;entryY=0;entryDx=0;entryDy=0;endArrow=none;startFill=0;" edge="1" parent="1" source="aTxAGdpztoEhREPiwRuB-1" target="aTxAGdpztoEhREPiwRuB-4">
          <mxGeometry relative="1" as="geometry" />
        </mxCell>
        <mxCell id="aTxAGdpztoEhREPiwRuB-1" value="离线档案管理" style="rounded=0;whiteSpace=wrap;html=1;" vertex="1" parent="1">
          <mxGeometry x="380" y="200" width="136" height="50" as="geometry" />
        </mxCell>
        <mxCell id="aTxAGdpztoEhREPiwRuB-26" style="edgeStyle=orthogonalEdgeStyle;rounded=0;orthogonalLoop=1;jettySize=auto;html=1;entryX=0.5;entryY=0;entryDx=0;entryDy=0;endArrow=none;startFill=0;" edge="1" parent="1" source="aTxAGdpztoEhREPiwRuB-2" target="aTxAGdpztoEhREPiwRuB-11">
          <mxGeometry relative="1" as="geometry" />
        </mxCell>
        <mxCell id="aTxAGdpztoEhREPiwRuB-27" style="edgeStyle=orthogonalEdgeStyle;rounded=0;orthogonalLoop=1;jettySize=auto;html=1;endArrow=none;startFill=0;" edge="1" parent="1" source="aTxAGdpztoEhREPiwRuB-2">
          <mxGeometry relative="1" as="geometry">
            <mxPoint x="618" y="480" as="targetPoint" />
          </mxGeometry>
        </mxCell>
        <mxCell id="aTxAGdpztoEhREPiwRuB-28" style="edgeStyle=orthogonalEdgeStyle;rounded=0;orthogonalLoop=1;jettySize=auto;html=1;entryX=0.5;entryY=0;entryDx=0;entryDy=0;endArrow=none;startFill=0;" edge="1" parent="1" source="aTxAGdpztoEhREPiwRuB-2" target="aTxAGdpztoEhREPiwRuB-13">
          <mxGeometry relative="1" as="geometry" />
        </mxCell>
        <mxCell id="aTxAGdpztoEhREPiwRuB-30" style="edgeStyle=orthogonalEdgeStyle;rounded=0;orthogonalLoop=1;jettySize=auto;html=1;entryX=0.5;entryY=0;entryDx=0;entryDy=0;endArrow=none;startFill=0;" edge="1" parent="1" source="aTxAGdpztoEhREPiwRuB-2" target="aTxAGdpztoEhREPiwRuB-14">
          <mxGeometry relative="1" as="geometry">
            <Array as="points">
              <mxPoint x="618" y="430" />
              <mxPoint x="720" y="430" />
            </Array>
          </mxGeometry>
        </mxCell>
        <mxCell id="aTxAGdpztoEhREPiwRuB-2" value="档案注录" style="rounded=0;whiteSpace=wrap;html=1;" vertex="1" parent="1">
          <mxGeometry x="550" y="330" width="136" height="50" as="geometry" />
        </mxCell>
        <mxCell id="aTxAGdpztoEhREPiwRuB-18" style="edgeStyle=orthogonalEdgeStyle;rounded=0;orthogonalLoop=1;jettySize=auto;html=1;entryX=0.5;entryY=0;entryDx=0;entryDy=0;endArrow=none;startFill=0;" edge="1" parent="1" source="aTxAGdpztoEhREPiwRuB-3" target="aTxAGdpztoEhREPiwRuB-5">
          <mxGeometry relative="1" as="geometry" />
        </mxCell>
        <mxCell id="aTxAGdpztoEhREPiwRuB-19" style="edgeStyle=orthogonalEdgeStyle;rounded=0;orthogonalLoop=1;jettySize=auto;html=1;endArrow=none;startFill=0;" edge="1" parent="1" source="aTxAGdpztoEhREPiwRuB-3" target="aTxAGdpztoEhREPiwRuB-6">
          <mxGeometry relative="1" as="geometry" />
        </mxCell>
        <mxCell id="aTxAGdpztoEhREPiwRuB-20" style="edgeStyle=orthogonalEdgeStyle;rounded=0;orthogonalLoop=1;jettySize=auto;html=1;entryX=0.5;entryY=0;entryDx=0;entryDy=0;endArrow=none;startFill=0;" edge="1" parent="1" source="aTxAGdpztoEhREPiwRuB-3" target="aTxAGdpztoEhREPiwRuB-7">
          <mxGeometry relative="1" as="geometry" />
        </mxCell>
        <mxCell id="aTxAGdpztoEhREPiwRuB-3" value="用户管理" style="rounded=0;whiteSpace=wrap;html=1;" vertex="1" parent="1">
          <mxGeometry x="182" y="330" width="136" height="50" as="geometry" />
        </mxCell>
        <mxCell id="aTxAGdpztoEhREPiwRuB-23" style="edgeStyle=orthogonalEdgeStyle;rounded=0;orthogonalLoop=1;jettySize=auto;html=1;entryX=0.5;entryY=0;entryDx=0;entryDy=0;endArrow=none;startFill=0;" edge="1" parent="1" source="aTxAGdpztoEhREPiwRuB-4" target="aTxAGdpztoEhREPiwRuB-9">
          <mxGeometry relative="1" as="geometry" />
        </mxCell>
        <mxCell id="aTxAGdpztoEhREPiwRuB-24" style="edgeStyle=orthogonalEdgeStyle;rounded=0;orthogonalLoop=1;jettySize=auto;html=1;entryX=0.5;entryY=0;entryDx=0;entryDy=0;endArrow=none;startFill=0;" edge="1" parent="1" source="aTxAGdpztoEhREPiwRuB-4" target="aTxAGdpztoEhREPiwRuB-8">
          <mxGeometry relative="1" as="geometry" />
        </mxCell>
        <mxCell id="aTxAGdpztoEhREPiwRuB-25" style="edgeStyle=orthogonalEdgeStyle;rounded=0;orthogonalLoop=1;jettySize=auto;html=1;entryX=0.5;entryY=0;entryDx=0;entryDy=0;curved=0;strokeColor=default;endArrow=none;startFill=0;" edge="1" parent="1" source="aTxAGdpztoEhREPiwRuB-4" target="aTxAGdpztoEhREPiwRuB-10">
          <mxGeometry relative="1" as="geometry" />
        </mxCell>
        <mxCell id="aTxAGdpztoEhREPiwRuB-4" value="数据同步" style="rounded=0;whiteSpace=wrap;html=1;" vertex="1" parent="1">
          <mxGeometry x="380" y="330" width="136" height="50" as="geometry" />
        </mxCell>
        <mxCell id="aTxAGdpztoEhREPiwRuB-5" value="登录" style="rounded=0;whiteSpace=wrap;html=1;textDirection=vertical-lr;" vertex="1" parent="1">
          <mxGeometry x="180" y="480" width="40" height="120" as="geometry" />
        </mxCell>
        <mxCell id="aTxAGdpztoEhREPiwRuB-6" value="注册" style="rounded=0;whiteSpace=wrap;html=1;textDirection=vertical-lr;" vertex="1" parent="1">
          <mxGeometry x="230" y="480" width="40" height="120" as="geometry" />
        </mxCell>
        <mxCell id="aTxAGdpztoEhREPiwRuB-7" value="退出" style="rounded=0;whiteSpace=wrap;html=1;textDirection=vertical-lr;" vertex="1" parent="1">
          <mxGeometry x="286" y="480" width="40" height="120" as="geometry" />
        </mxCell>
        <mxCell id="aTxAGdpztoEhREPiwRuB-8" value="同步" style="rounded=0;whiteSpace=wrap;html=1;textDirection=vertical-lr;" vertex="1" parent="1">
          <mxGeometry x="374" y="480" width="40" height="120" as="geometry" />
        </mxCell>
        <mxCell id="aTxAGdpztoEhREPiwRuB-9" value="更新" style="rounded=0;whiteSpace=wrap;html=1;textDirection=vertical-lr;" vertex="1" parent="1">
          <mxGeometry x="428" y="480" width="40" height="120" as="geometry" />
        </mxCell>
        <mxCell id="aTxAGdpztoEhREPiwRuB-10" value="同步历史" style="rounded=0;whiteSpace=wrap;html=1;textDirection=vertical-lr;" vertex="1" parent="1">
          <mxGeometry x="476" y="480" width="40" height="120" as="geometry" />
        </mxCell>
        <mxCell id="aTxAGdpztoEhREPiwRuB-11" value="条目管理" style="rounded=0;whiteSpace=wrap;html=1;textDirection=vertical-lr;" vertex="1" parent="1">
          <mxGeometry x="550" y="480" width="40" height="120" as="geometry" />
        </mxCell>
        <mxCell id="aTxAGdpztoEhREPiwRuB-12" value="原文管理" style="rounded=0;whiteSpace=wrap;html=1;textDirection=vertical-lr;" vertex="1" parent="1">
          <mxGeometry x="598" y="480" width="40" height="120" as="geometry" />
        </mxCell>
        <mxCell id="aTxAGdpztoEhREPiwRuB-13" value="档号管理" style="rounded=0;whiteSpace=wrap;html=1;textDirection=vertical-lr;" vertex="1" parent="1">
          <mxGeometry x="646" y="480" width="40" height="120" as="geometry" />
        </mxCell>
        <mxCell id="aTxAGdpztoEhREPiwRuB-14" value="数据回收站" style="rounded=0;whiteSpace=wrap;html=1;textDirection=vertical-lr;" vertex="1" parent="1">
          <mxGeometry x="700" y="480" width="40" height="120" as="geometry" />
        </mxCell>
      </root>
    </mxGraphModel>
  </diagram>
</mxfile>
